<svg width="87" height="48" viewBox="0 0 87 48" fill="none" xmlns="http://www.w3.org/2000/svg">
<path d="M5.45278 28.9284L25.2252 33.6983L26.1002 40.4527L0.70151 32.9633L0.12184 28.4888L5.45278 28.9284ZM23.5268 20.5884L5.63738 30.3534L0.57967 32.0228L0 27.5484L22.6554 13.8625L23.5268 20.5884ZM50.03 0L39.7079 47.1514L34.3214 47.8492L44.672 0.69412L50.03 0ZM80.3346 20.3866L60.2276 15.718L59.3673 9.07751L85.3608 16.4609L85.9442 20.9639L80.3346 20.3866ZM61.9518 29.0273L80.2439 19.2392L85.4826 17.4014L86.0623 21.8759L62.8121 35.6677L61.9518 29.0273Z" fill="#2D2D2D" fill-opacity="0.2"/>
</svg>
